<svg xmlns="http://www.w3.org/2000/svg" width="60" height="60" viewBox="0 0 60 60"><g><g><path fill="#d03778" d="M5 60a5 5 0 0 1-5-5V5a5 5 0 0 1 5-5h50a5 5 0 0 1 5 5v50a5 5 0 0 1-5 5z"/></g><g><path fill="#fff" d="M25.58 23.111c.174-.068.36-.102.547-.099.677 0 1.616.378 2.663 1.446a1.125 1.125 0 0 0 1.59.017c.007-.005.012-.011.017-.017 1.37-1.4 2.558-1.614 3.211-1.347.48.195.756.659.756 1.271.003 1.479-1.264 3.944-4.77 6.574-3.505-2.63-4.772-5.095-4.77-6.573 0-.613.276-1.077.755-1.272zm3.368 10.156c.388.272.905.272 1.292 0 2.085-1.463 3.704-3.018 4.812-4.622 1.024-1.482 1.565-2.957 1.563-4.265-.002-1.527-.828-2.812-2.157-3.353-1.475-.6-3.24-.178-4.864 1.126-1.623-1.304-3.388-1.727-4.863-1.125-1.33.54-2.156 1.826-2.158 3.352-.001 1.309.54 2.784 1.563 4.266 1.109 1.603 2.728 3.158 4.812 4.62zM40 44.952l-10.254-5.757a1.125 1.125 0 0 0-1.078-.012l-9.48 5.038V14.25H40zM18.063 12c-.621 0-1.125.503-1.125 1.125v32.969a1.125 1.125 0 0 0 1.653.993l10.59-5.629 11.393 6.397a1.125 1.125 0 0 0 1.676-.98v-33.75c0-.622-.504-1.125-1.125-1.125z"/></g></g></svg>