<svg xmlns="http://www.w3.org/2000/svg" width="60" height="60" viewBox="0 0 60 60"><g><g><path fill="#6fc764" d="M5 60a5 5 0 0 1-5-5V5a5 5 0 0 1 5-5h50a5 5 0 0 1 5 5v50a5 5 0 0 1-5 5z"/></g><g><path fill="#fff" d="M26.333 38.488a1.867 1.867 0 1 0-3.733 0 1.867 1.867 0 0 0 3.733 0zm18.667 0a.933.933 0 0 1-.933.933H28.069a3.733 3.733 0 0 1-7.205 0h-2.93a.933.933 0 0 1 0-1.867h2.93a3.733 3.733 0 0 1 7.205 0h15.998c.515 0 .933.418.933.934zm-22.4-16.8a1.867 1.867 0 1 0 3.733 0 1.867 1.867 0 0 0-3.733 0zm-5.6 0c0-.516.418-.934.933-.934h2.931a3.733 3.733 0 0 1 7.205 0h15.998a.933.933 0 1 1 0 1.867H28.069a3.733 3.733 0 0 1-7.205 0h-2.93a.933.933 0 0 1-.934-.933zm20.533 8.4a1.867 1.867 0 1 0-3.733 0 1.867 1.867 0 0 0 3.733 0zm7.467 0a.933.933 0 0 1-.933.933h-4.798a3.733 3.733 0 0 1-7.205 0h-14.13a.933.933 0 1 1 0-1.867h14.13a3.733 3.733 0 0 1 7.205 0h4.798c.515 0 .933.418.933.934z"/></g></g></svg>