<svg xmlns="http://www.w3.org/2000/svg" width="60" height="60" viewBox="0 0 60 60"><g><g><path fill="#facf60" d="M5 60a5 5 0 0 1-5-5V5a5 5 0 0 1 5-5h50a5 5 0 0 1 5 5v50a5 5 0 0 1-5 5z"/></g><g><path fill="#fff" d="M44.987 35.437l-2.747-.81a1.082 1.082 0 0 1-.592-.43l-1.619-2.362-1.62 2.362c-.14.207-.35.36-.59.43l-2.75.81 1.746 2.27c.153.199.233.444.226.695l-.078 2.864 2.7-.96c.236-.084.494-.084.73 0l2.7.96-.08-2.864c-.007-.25.073-.496.226-.695zm2.875-.933c.112.342.05.716-.168 1.002l-2.482 3.225.11 4.066a1.091 1.091 0 0 1-1.457 1.058l-3.833-1.363-3.834 1.363a1.091 1.091 0 0 1-1.456-1.058l.11-4.066-2.481-3.225a1.091 1.091 0 0 1 .555-1.712l3.904-1.15 2.3-3.358a1.134 1.134 0 0 1 1.8 0l2.3 3.358 3.902 1.15c.346.102.619.367.73.71zm-21.988.933l-2.748-.81a1.082 1.082 0 0 1-.592-.43l-1.62-2.363-1.62 2.363a1.08 1.08 0 0 1-.591.43l-2.747.81 1.746 2.27c.154.199.234.444.226.695l-.078 2.864 2.698-.96c.237-.084.495-.084.731 0l2.7.96-.078-2.864a1.1 1.1 0 0 1 .225-.696zm2.154-1.643a1.091 1.091 0 0 1 .555 1.713l-2.481 3.224.109 4.066a1.091 1.091 0 0 1-1.456 1.058l-3.835-1.363-3.832 1.363a1.091 1.091 0 0 1-1.457-1.058l.11-4.066-2.485-3.225a1.091 1.091 0 0 1 .556-1.712l3.902-1.15 2.3-3.358a1.133 1.133 0 0 1 1.8 0l2.302 3.358 3.903 1.15zm5.095-8.315c-.007-.25.073-.496.226-.694l1.745-2.27-2.747-.812c-.24-.07-.45-.222-.592-.429l-1.62-2.363-1.618 2.363c-.142.207-.351.358-.592.429l-2.748.812 1.746 2.27c.153.198.233.443.226.694l-.08 2.863 2.7-.96c.237-.083.494-.083.73 0l2.701.96zm1.848 5.307a1.091 1.091 0 0 1-1.007.146l-3.831-1.363-3.833 1.363a1.091 1.091 0 0 1-1.457-1.058l.11-4.067-2.482-3.224a1.091 1.091 0 0 1 .557-1.711l3.902-1.152 2.3-3.356a1.132 1.132 0 0 1 1.8 0l2.301 3.356 3.906 1.152a1.091 1.091 0 0 1 .556 1.71l-2.481 3.225.109 4.067c.01.36-.159.701-.45.912z"/></g></g></svg>